<svg xmlns="http://www.w3.org/2000/svg" xmlns:xlink="http://www.w3.org/1999/xlink" version="1.1" id="github" x="0px" y="0px" viewBox="0 0 64 64" xml:space="preserve" enable-background="new 0 0 64 64" class="icons"><g id="XMLID_122_"><path class="svg_links" id="XMLID_266_" d="M35.8 22.8c0 0.4 0 0.8 0 1.2 0 0.4 0 0.7 0 1.1s0 0.8 0 1.1c0 0.4 0 0.7 0 1.1s0 0.7 0 1.1c0.2-0.1 0.2-0.2 0.3-0.3 0.6-0.9 1.3-1.8 2.1-2.6 1.7-1.7 3.8-2.8 6.2-3.3 1.4-0.3 2.9-0.4 4.4-0.4 2.2 0.1 4.2 0.5 6.2 1.4 3 1.4 5.1 3.5 6.6 6.4 0.8 1.6 1.4 3.3 1.7 5 0.4 1.8 0.5 3.6 0.5 5.5 0 7.7 0 15.5 0 23.2 0 0.2 0 0.4 0 0.6 -0.1 0-0.1 0-0.2 0 -4.5 0-8.9 0-13.4 0 0-0.1-0.1-0.2-0.1-0.3 0-0.2 0-0.3 0-0.5 0-7.1 0-14.2 0-21.3 0-1.4-0.1-2.8-0.5-4.1 -0.2-0.8-0.5-1.6-1-2.3 -1-1.5-2.3-2.4-4.1-2.7 -1.1-0.2-2.3-0.2-3.4 0.2 -1.6 0.4-2.8 1.3-3.8 2.6 -0.3 0.4-0.5 0.8-0.8 1.2 -0.5 0.9-0.8 1.9-0.8 3 0 0.4 0 0.9 0 1.3 0 7.4 0 14.8 0 22.2 0 0.2 0 0.4 0 0.7 -0.1 0-0.2 0-0.3 0 -1.4 0-12.9 0-13.4 0 -0.1-0.1-0.1-0.3-0.1-0.5 0-1.3 0-2.6 0-3.8 0-3 0-6 0-9 0-6.2 0-12.4 0-18.6 0-2.3 0-4.7 0-7 0-0.6 0-1.1 0-1.7 0-0.1 0-0.3 0-0.4 0.1 0 0.2 0 0.2 0C26.8 22.8 31.3 22.8 35.8 22.8z"/><path class="svg_links" id="XMLID_265_" d="M14.5 64c-4.5 0-9.1 0-13.6 0 0-0.1 0-0.2-0.1-0.3 0-0.1 0-0.3 0-0.4 0-13.3 0-26.5 0-39.8 0-0.2 0-0.4 0-0.7 0.1 0 0.1 0 0.2 0 4.5 0 8.9 0 13.4 0 0 0.1 0.1 0.2 0.1 0.3 0 0.1 0 0.3 0 0.4 0 13.2 0 26.5 0 39.7C14.6 63.5 14.6 63.7 14.5 64z"/><path class="svg_links" id="XMLID_264_" d="M7.8 3c1.4 0 2.7 0.2 3.8 0.8 2 1 3.2 2.6 3.7 4.8 0.4 1.6 0.2 3.1-0.5 4.6 -0.8 1.8-2.2 3-4.1 3.6 -1.3 0.5-2.7 0.6-4.1 0.4 -0.8-0.1-1.6-0.3-2.4-0.7 -2.3-1.1-3.6-2.8-4-5.3 -0.2-1.5 0-3 0.7-4.4C1.8 5.1 3.2 4 5 3.4 5.9 3.1 6.9 3 7.8 3z"/></g></svg>