<svg xmlns="http://www.w3.org/2000/svg" xmlns:xlink="http://www.w3.org/1999/xlink" version="1.1" id="github" x="0px" y="0px" viewBox="0 0 64 64" xml:space="preserve" enable-background="new 0 0 64 64" class="icons"><g id="XMLID_407_"><path class="svg_links" id="XMLID_435_" d="M64 30c0 1.3 0 2.7 0 4 0 0.2-0.1 0.4-0.1 0.6 -0.2 3.1-0.9 6.1-2.1 9 -4.7 11.2-13.1 17.9-25.2 20 -0.9 0.2-1.8 0.2-2.6 0.4 -1.3 0-2.7 0-4 0 -0.2 0-0.4-0.1-0.6-0.1 -2.8-0.2-5.6-0.8-8.2-1.8C9.9 57.7 2.9 49.5 0.5 37.6c-0.2-1.1-0.3-2.3-0.5-3.4 0-1.4 0-2.8 0-4.2 0-0.2 0.1-0.4 0.1-0.5 0.3-1.9 0.5-3.9 1.1-5.8 3.9-12.6 12.3-20.3 25.3-23 1.1-0.2 2.3-0.3 3.4-0.5 1.4 0 2.8 0 4.1 0 0.8 0.1 1.6 0.2 2.4 0.3 6.4 0.9 12 3.5 16.8 7.8 5.8 5.2 9.3 11.6 10.4 19.2C63.8 28.2 63.9 29.1 64 30zM37.2 44.4c1.5 1.6 1.7 3.6 1.7 5.8 0 2.2 0 4.4 0 6.6 0 1.6 0.8 2.2 2.4 1.7 13.1-4.6 20.8-18.1 18.2-31.8C56.6 11.4 41.6 1.4 26.4 4.5c-14.7 3-24.6 17.2-22 32C6 45.6 10.9 52.3 19 56.8c1.3 0.7 2.6 1.2 3.9 1.7 1.3 0.5 2.2-0.2 2.2-1.6 0-1.3 0-2.6 0-3.9 0-0.2 0-0.4 0-0.5 -0.7 0.1-1.4 0.2-2.1 0.3 -3.2 0.2-6.4-1-7.6-4.4 -0.6-1.6-1.6-2.9-3-3.8 -0.2-0.1-0.5-0.3-0.7-0.6 -0.5-0.5-0.4-0.8 0.3-1 0.4-0.1 0.7-0.1 1.1 0 1.8 0.3 3 1.3 3.9 2.8 1.8 3.1 4.7 3.6 7.8 2.5 0.2-0.1 0.4-0.2 0.4-0.4 0.3-1.3 0.8-2.5 1.7-3.5 -1.4-0.3-2.7-0.5-4-0.9 -3.4-1-6.1-2.9-7.6-6.3 -0.7-1.6-1-3.2-1.1-4.9 -0.3-3.3 0.3-6.4 2.5-9 0.1-0.1 0.2-0.5 0.1-0.7 -0.5-1.9-0.5-3.7 0-5.6 0.4-1.6 0.6-1.7 2.2-1.3 2 0.4 3.7 1.4 5.4 2.4 0.3 0.2 0.6 0.3 0.9 0.2 4.4-1.2 8.8-1.2 13.3 0 0.3 0.1 0.6 0 0.9-0.2 1.3-0.6 2.5-1.4 3.8-2 0.9-0.4 1.9-0.4 2.8-0.6 0.3-0.1 0.5 0.1 0.6 0.4 0.7 2.2 1 4.3 0.4 6.6 -0.1 0.2 0 0.6 0.2 0.8 1.3 1.6 2.2 3.4 2.3 5.5 0.1 1.7 0.1 3.4-0.2 5.1 -0.7 4.5-3 7.6-7.4 9.1C40.6 43.7 38.9 44 37.2 44.4z"/></g></svg>