<svg xmlns="http://www.w3.org/2000/svg" xmlns:xlink="http://www.w3.org/1999/xlink" version="1.1" id="github" x="0px" y="0px" viewBox="0 0 64 64" xml:space="preserve" enable-background="new 0 0 64 64" class="icons"><g><path class="svg_links" id="XMLID_33_" d="M33.6 57.1c-10.4-0.1-18.5-2.3-25-8.5C4.4 44.7 1.4 40 0.3 34.3c-0.8-4.1 0.6-7.8 2.5-11.4 3-5.4 7.1-9.7 12.8-12.3C26.7 5.6 38 5.6 49 11c7.3 3.6 12.1 9.7 14.4 17.5 1 3.5 0.4 7-1.1 10.3C56.3 51.8 45.6 56.8 33.6 57.1zM32 52.4c1.9-0.2 3.8-0.2 5.6-0.5 9.8-1.6 17-6.7 20.7-16.1 0.7-1.7 0.9-4 0.4-5.8 -1.5-6.1-5.2-10.7-10.6-14 -4.4-2.7-9.3-3.9-14.5-4.2 -11.8-0.6-23 4.3-27.8 15.6 -1.2 2.7-1.5 5.4-0.4 8.2 1.2 3.2 3 6.2 5.4 8.7C16.8 50.1 24 52.3 32 52.4z"/><path class="svg_links" id="XMLID_29_" d="M31.9 46.1C24.1 46 17.9 39.8 18 32c0.1-7.8 6.3-14 14.1-13.9C39.9 18.1 46 24.3 46 32.2 45.9 40 39.7 46.1 31.9 46.1z"/></g></svg>