<svg xmlns="http://www.w3.org/2000/svg" xmlns:xlink="http://www.w3.org/1999/xlink" version="1.1" id="Layer_1" x="0px" y="0px" viewBox="0 0 300 200" xml:space="preserve" enable-background="new 0 0 300 200" class="icons"><g><g><path class="svg_links" d="M70.3 142.4c-5.2 0-10.1-1-14.6-3 -4.6-2-8.5-4.6-12-8 -3.4-3.4-6.1-7.4-8-12 -2-4.6-3-9.4-3-14.5 0-5.2 1-10.1 3-14.7s4.6-8.5 8-11.9 7.4-6.1 12-8.1 9.5-2.9 14.6-2.9c5.3 0 10.3 1.1 15.2 3.2 4.8 2.1 9 5.2 12.7 9.2L86 90.6c-2.1-2.3-4.5-4-7.1-5.2 -2.7-1.2-5.6-1.8-8.6-1.8 -2.9 0-5.7 0.6-8.3 1.6 -2.6 1.1-4.9 2.6-6.8 4.6 -1.9 1.9-3.5 4.2-4.5 6.8 -1.1 2.6-1.7 5.4-1.7 8.3s0.5 5.7 1.7 8.2c1.1 2.6 2.6 4.8 4.5 6.8 1.9 1.9 4.2 3.4 6.8 4.5 2.6 1.1 5.4 1.6 8.3 1.6 3 0 5.9-0.6 8.6-1.8 2.7-1.2 5.1-2.9 7.1-5.2l12.1 11c-3.6 4-7.8 7.1-12.7 9.1C80.6 141.4 75.6 142.4 70.3 142.4z" style="fill:#58AADB;stroke-miterlimit:10;stroke-width:4;stroke:#000"/><path d="M79.3 134.4c-5.2 0-10.1-1-14.6-3 -4.6-2-8.5-4.6-12-8 -3.4-3.4-6.1-7.4-8-12 -2-4.6-3-9.4-3-14.5 0-5.2 1-10.1 3-14.7s4.6-8.5 8-11.9 7.4-6.1 12-8.1 9.5-2.9 14.6-2.9c5.3 0 10.3 1.1 15.2 3.2 4.8 2.1 9 5.2 12.7 9.2L95 82.6c-2.1-2.3-4.5-4-7.1-5.2 -2.7-1.2-5.6-1.8-8.6-1.8 -2.9 0-5.7 0.6-8.3 1.6 -2.6 1.1-4.9 2.6-6.8 4.6 -1.9 1.9-3.5 4.2-4.5 6.8C58.6 91.2 58 94 58 96.9s0.5 5.7 1.7 8.2c1.1 2.6 2.6 4.8 4.5 6.8 1.9 1.9 4.2 3.4 6.8 4.5s5.4 1.6 8.3 1.6c3 0 5.9-0.6 8.6-1.8 2.7-1.2 5.1-2.9 7.1-5.2l12.1 11c-3.6 4-7.8 7.1-12.7 9.1C89.6 133.4 84.6 134.4 79.3 134.4z" style="fill:#B3395C;stroke-miterlimit:10;stroke-width:4;stroke:#000"/></g><g><g><path d="M187.5 58.7l-26.9 72.9 -9.6 10.7h-11.9l-26-75.1 10.4-7.5 21.8 49.3 15.1-41.8 8.3-7.8L187.5 58.7z" fill="#58AADB"/><path d="M152.4 144.3h-14.7l-27.4-79.1 9.2-8 25.9 45.8 13.7-37.8 9-7.9 13.2 7.9 -19.6 71L152.4 144.3zM140.5 140.3h9.1l8.9-7.9 16.9-63.2 -4.9-7.9 -8.8 7.9L145.3 115 125 61.2l-9 8L140.5 140.3z"/></g><path d="M187.3 59.2L160 134.3h-11.9l-26-75.1h17.7l14.5 41.8 15.1-41.8H187.3L187.3 59.2z" style="fill:#B3395C;stroke-miterlimit:10;stroke-width:4;stroke:#000"/><rect x="137.3" y="138.2" transform="matrix(0.8009 -0.5987 0.5987 0.8009 -54.4736 113.5304)" width="12.4" height="1"/></g><g><g><path d="M221.1 142c-5.1 0-10-1-14.5-2.9 -4.5-2-8.5-4.6-11.8-8s-6-7.3-8-11.9c-2-4.5-2.9-9.4-2.9-14.5s1-10 2.9-14.5c2-4.5 4.6-8.5 8-11.9s7.3-6.1 11.8-8.1 9.4-2.9 14.5-2.9c5.3 0 10.4 1.1 15.2 3.2 4.8 2.2 9 5.2 12.6 9.2l-12.3 10.9c-2-2.2-4.3-3.9-7-5.1s-5.5-1.8-8.5-1.8c-2.9 0-5.6 0.5-8.1 1.6s-4.8 2.6-6.6 4.5c-1.9 1.9-3.4 4.1-4.5 6.6 -1.1 2.6-1.7 5.3-1.7 8.1 0 2.9 0.5 5.6 1.7 8.1 1.1 2.5 2.6 4.7 4.5 6.6s4.1 3.3 6.6 4.4 5.2 1.6 8.1 1.6c4.3 0 8.2-1.2 11.6-3.5s6-5.4 7.5-9.1H221V96.1l9.2-8.5 28.2 8.5v8.3c0 5.1-1 10-3 14.5s-4.6 8.5-8 11.9c-3.4 3.4-7.4 6-11.9 8C231.1 141.1 226.2 142 221.1 142z" fill="#58AADB"/><path d="M221.1 144c-5.4 0-10.5-1-15.3-3.1 -4.7-2.1-8.9-4.9-12.4-8.4s-6.3-7.7-8.4-12.5 -3.1-9.9-3.1-15.3 1-10.5 3.1-15.3c2-4.7 4.9-9 8.4-12.5 3.5-3.6 7.7-6.4 12.4-8.5 4.8-2.1 9.9-3.1 15.3-3.1 5.6 0 11 1.2 16.1 3.4 5.1 2.3 9.5 5.5 13.3 9.7l1.3 1.5 -15.3 13.5 -1.3-1.5c-1.8-2-4-3.5-6.4-4.6s-5-1.6-7.7-1.6c-2.6 0-5 0.5-7.3 1.5s-4.3 2.4-6 4c-1.7 1.7-3.1 3.7-4.1 6s-1.5 4.8-1.5 7.4 0.5 5 1.5 7.3 2.4 4.3 4.1 6 3.7 3 6 4 4.7 1.5 7.3 1.5c4 0 7.4-1 10.5-3.2 2.2-1.5 4-3.3 5.4-5.4h-17.9V94.3l9-7.1 32.4 7.1v10.3c0 5.4-1 10.5-3.1 15.3 -2.1 4.7-4.9 8.9-8.5 12.5 -3.6 3.5-7.8 6.4-12.5 8.4C231.6 143 226.5 144 221.1 144zM221.1 69.3c-4.8 0-9.4 0.9-13.7 2.8s-8 4.4-11.2 7.6 -5.7 7-7.5 11.3 -2.8 8.9-2.8 13.7c0 4.8 0.9 9.4 2.8 13.7 1.8 4.3 4.4 8.1 7.5 11.2 3.2 3.2 6.9 5.7 11.2 7.6 4.3 1.8 8.9 2.8 13.7 2.8s9.4-0.9 13.7-2.8c4.3-1.9 8.1-4.4 11.3-7.6 3.2-3.2 5.8-6.9 7.6-11.2 1.8-4.3 2.8-8.9 2.8-13.7v-6.3L232 90.5l-8.9 7.9v12.5h20.2l-1.2 2.8c-1.7 4.1-4.5 7.4-8.3 10s-8.1 3.8-12.8 3.8c-3.1 0-6.1-0.6-8.9-1.8 -2.7-1.2-5.2-2.8-7.3-4.9 -2.1-2-3.7-4.5-4.9-7.2 -1.2-2.8-1.8-5.8-1.8-8.9s0.6-6.1 1.8-8.9 2.9-5.2 4.9-7.3c2.1-2 4.5-3.7 7.3-4.9 2.8-1.2 5.8-1.8 8.9-1.8 3.3 0 6.4 0.7 9.4 2 2.3 1 4.5 2.4 6.3 4.2l9.3-8.3c-3.1-3.1-6.6-5.5-10.6-7.3C231 70.4 226.1 69.3 221.1 69.3z"/></g><path d="M230.1 134c-5.1 0-10-1-14.5-2.9 -4.5-2-8.5-4.6-11.8-8s-6-7.3-8-11.9c-2-4.5-2.9-9.4-2.9-14.5s1-10 2.9-14.5c2-4.5 4.6-8.5 8-11.9s7.3-6.1 11.8-8.1 9.4-2.9 14.5-2.9c5.3 0 10.4 1.1 15.2 3.2 4.8 2.2 9 5.2 12.6 9.2l-12.3 10.9c-2-2.2-4.3-3.9-7-5.1s-5.5-1.8-8.5-1.8c-2.9 0-5.6 0.5-8.1 1.6s-4.8 2.6-6.6 4.5c-1.9 1.9-3.4 4.1-4.5 6.6 -1.1 2.6-1.7 5.3-1.7 8.1 0 2.9 0.5 5.6 1.7 8.1 1.1 2.5 2.6 4.7 4.5 6.6s4.1 3.3 6.6 4.4 5.2 1.6 8.1 1.6c4.3 0 8.2-1.2 11.6-3.5s6-5.4 7.5-9.1H230V88.1h37.4v8.3c0 5.1-1 10-3 14.5s-4.6 8.5-8 11.9 -7.4 6-11.9 8C240.1 133.1 235.2 134 230.1 134z" style="fill:#B3395C;stroke-miterlimit:10;stroke-width:4;stroke:#000"/><rect x="219.6" y="108.4" transform="matrix(0.8009 -0.5987 0.5987 0.8009 -20.2502 156.8712)" width="12.4" height="1"/></g></g></svg>